<svg xmlns="http://www.w3.org/2000/svg" viewBox="0 0 64 64" role="img" aria-label="Tax calculator icon">
  <rect x="1.5" y="1.5" width="61" height="61" rx="3" fill="#1652B4"/>
  <rect x="4" y="4" width="56" height="56" rx="2" fill="#10B25C"/>

  <!-- Display area -->
  <rect x="8" y="8" width="48" height="14" rx="1" fill="#fff"/>

  <!-- Percent symbol -->
  <circle cx="14" cy="14" r="2.5" fill="#1652B4"/>
  <circle cx="22" cy="18" r="2.5" fill="#1652B4"/>
  <rect x="18" y="10" width="3" height="12" transform="rotate(55 19.5 16)" fill="#1652B4"/>

  <!-- Money bag -->
  <path d="M42 9.5h6l-1.5 2.5 2 2c.5.6.4 1.5-.2 1.9l-2.2 1.5c.5 1.1.7 2.4.7 3.6 0 4.9-3.9 8.9-8.8 8.9s-8.8-4-8.8-8.9c0-2 .6-3.8 1.7-5.3l.2-.2-1.8-1.2c-.7-.5-.8-1.4-.2-1.9l2-2 6.7-.9z" fill="#10B25C"/>
  <path d="M37.2 19.5h2.4v-1.4h-2.4v-2h3.4v-1.4h-1.4v-1.3h-2v1.3h-1.4v1.4h1.4v2h-2.4v1.4h2.4v1.7h2v-1.7z" fill="#fff"/>

  <!-- Keypad -->
  <rect x="10" y="26" width="10" height="10" fill="#fff"/>
  <rect x="24" y="26" width="10" height="10" fill="#fff"/>
  <rect x="38" y="26" width="10" height="10" fill="#fff"/>

  <rect x="10" y="38" width="10" height="10" fill="#fff"/>
  <rect x="24" y="38" width="10" height="10" fill="#fff"/>
  <rect x="38" y="38" width="10" height="10" fill="#fff"/>

  <rect x="10" y="50" width="10" height="8" fill="#fff"/>
  <rect x="24" y="50" width="10" height="8" fill="#1652B4"/>

  <!-- Right column -->
  <rect x="48" y="38" width="6" height="20" fill="#fff"/>
  <rect x="48" y="26" width="6" height="10" fill="#1652B4"/>
</svg>
